<svg xml:space="preserve" style="max-height: 500px" viewBox="90.662 0 195.62400000000002 57.142857142857146" y="0px" x="0px" xmlns:xlink="http://www.w3.org/1999/xlink" xmlns="http://www.w3.org/2000/svg" id="Layer_1" version="1.1" width="195.62400000000002" height="57.142857142857146">
<style type="text/css">
	.st0{fill:#4CAFE3;}
	.st1{fill:#0077B6;}
	.st2{fill:#5BC2E7;}
	.st3{fill:#78BE20;}
</style>
<path d="M1.8,22.7v2.8c0.5,0.8,1.1,1.3,2.1,1.3c1.4,0,2.3-1.1,2.3-2.7s-1-2.7-2.3-2.7C2.9,21.4,2.3,22,1.8,22.7&#10;&#9; M7.9,24.1c0,2.3-1.5,4.1-3.6,4.1c-1.2,0-2-0.5-2.4-1v4.4H0.3V20.2h1.4l0.1,0.9C2.3,20.5,3.1,20,4.3,20C6.4,20.1,7.9,21.8,7.9,24.1" class="st0"/>
<path d="M10.2,24.1c0,1.6,1,2.7,2.5,2.7c1.4,0,2.5-1.1,2.5-2.7s-1-2.7-2.5-2.7S10.2,22.6,10.2,24.1 M16.6,24.1&#10;&#9;c0,2.3-1.7,4-4,4s-4-1.7-4-4s1.7-4.1,4-4.1S16.6,21.8,16.6,24.1" class="st0"/>
<path d="M21.7,21.6h-0.1c-1,0-1.6,0.5-2.1,1.3V28H18v-7.8h1.4l0.1,1.1c0.4-0.6,1.2-1.2,2.3-1.2L21.7,21.6L21.7,21.6z" class="st0"/>
<path d="M28.6,20.1h2.3V22h-2.3v3c0,0.7,0.4,1.1,1.1,1.1c0.5,0,0.8-0.1,1-0.2l0.6,1.8c-0.4,0.2-1,0.5-1.8,0.5&#10;&#9;c-1.9,0-3.2-1.1-3.2-3.1v-3h-1.4v-1.9h1.4v-2.6h2.3V20.1z" class="st0"/>
<path d="M34.3,28H32v-7.9h2.3V28z M34.5,17.6c0,0.8-0.6,1.3-1.3,1.3c-0.8,0-1.3-0.6-1.3-1.3c0-0.8,0.6-1.3,1.3-1.3&#10;&#9;C34,16.3,34.5,16.9,34.5,17.6" class="st0"/>
<path d="M37.7,26.8c0,0.4-0.1,0.6-0.3,0.9l-1.6,2.8h-0.1v-4.9c0.2-0.1,0.3-0.1,0.5-0.1C37.1,25.4,37.7,26,37.7,26.8" class="st0"/>
<path d="M1.9,35.6v2.8C2.4,39.2,3,39.7,4,39.7c1.4,0,2.3-1.1,2.3-2.7c0-1.6-1-2.7-2.3-2.7C3,34.3,2.4,34.8,1.9,35.6&#10;&#9; M7.9,37c0,2.3-1.5,4.1-3.6,4.1c-1.2,0-2-0.5-2.4-1v4.4H0.4V33.1h1.4V34c0.5-0.6,1.3-1.1,2.5-1.1C6.5,32.9,7.9,34.6,7.9,37" class="st0"/>
<path d="M10.2,37c0,1.6,1,2.7,2.5,2.7c1.4,0,2.5-1.1,2.5-2.7c0-1.6-1-2.7-2.5-2.7C11.3,34.3,10.2,35.4,10.2,37 M16.7,37&#10;&#9;c0,2.3-1.7,4-4,4s-4-1.7-4-4s1.7-4.1,4-4.1S16.7,34.6,16.7,37" class="st0"/>
<path d="M21.8,34.4h-0.1c-1,0-1.6,0.5-2.1,1.3v5.1H18V33h1.4l0.1,1.1c0.4-0.6,1.2-1.2,2.3-1.2V34.4z" class="st0"/>
<path d="M33.1,36.3v4.5h-2.3v-4.4c0-0.9-0.5-1.5-1.3-1.5c-0.7,0-1.2,0.5-1.5,0.9v5h-2.3V33h2.1l0.1,0.9&#10;&#9;c0.4-0.6,1.2-1,2.2-1C32.1,32.8,33.1,34.2,33.1,36.3" class="st0"/>
<path d="M41.8,40.9h-2.1L39.6,40c-0.4,0.6-1.2,1-2.3,1c-1.9,0-2.8-1.4-2.8-3.5V33h2.3v4.4c0,0.9,0.4,1.4,1.2,1.4&#10;&#9;c0.7,0,1.2-0.5,1.5-0.9v-5h2.3V40.9z" class="st0"/>
<path d="M45.2,36.1h3.1c0-0.9-0.6-1.6-1.5-1.6C45.8,34.6,45.2,35.2,45.2,36.1 M50.5,36.8v0.7h-5.3c0,1,0.7,1.6,1.8,1.6&#10;&#9;c0.8,0,1.4-0.3,1.7-0.8l1.6,1.3C49.5,40.5,48.4,41,47,41c-2.5,0-4.1-1.7-4.1-4.1c0-2.4,1.6-4.1,4-4.1C49.3,32.8,50.5,34.7,50.5,36.8" class="st0"/>
<path d="M57.3,33.7l-0.9,1.6c-0.4-0.4-1.1-0.7-1.9-0.7c-0.7,0-1,0.2-1,0.6c0,0.4,0.3,0.6,1.4,0.8&#10;&#9;c1.7,0.4,2.5,1.1,2.5,2.3c0,1.6-1.3,2.6-3.4,2.6c-1.2,0-2.3-0.4-3-1l0.9-1.6c0.5,0.5,1.3,0.8,2.2,0.8c0.7,0,1.1-0.2,1.1-0.7&#10;&#9;c0-0.4-0.3-0.6-1.3-0.9c-1.7-0.4-2.5-1-2.5-2.3c0-1.6,1.2-2.6,3.3-2.6C55.7,32.8,56.7,33.2,57.3,33.7" class="st0"/>
<path d="M61.4,33h2.3v1.9h-2.3v3c0,0.7,0.4,1.1,1.1,1.1c0.5,0,0.8-0.1,1-0.2l0.6,1.8c-0.4,0.2-1,0.5-1.8,0.5&#10;&#9;c-1.9,0-3.2-1.1-3.2-3.1v-3h-1.4v-2h1.4v-2.6h2.3C61.4,30.4,61.4,33,61.4,33z" class="st0"/>
<path d="M69.2,35.1H69c-0.9,0-1.5,0.5-2,1v4.7h-2.3V33h2l0.1,1c0.4-0.6,1.2-1.2,2.3-1.2L69.2,35.1L69.2,35.1z" class="st0"/>
<path d="M71.8,36.9c0,1.3,0.7,2.1,1.8,2.1c0.8,0,1.3-0.4,1.6-1v-2.2c-0.3-0.6-0.8-1-1.6-1&#10;&#9;C72.5,34.8,71.8,35.6,71.8,36.9 M75.3,33.9l0.1-0.9h2.1v7.9h-2.1L75.3,40c-0.4,0.6-1.2,1-2.3,1c-2.1,0-3.5-1.7-3.5-4.1&#10;&#9;c0-2.4,1.4-4.1,3.5-4.1C74.1,32.8,74.9,33.3,75.3,33.9" class="st0"/>
<path d="M7.3,48l-1.6,1.2c-0.3-0.6-0.8-1-1.6-1c-1.2,0-1.8,1-1.8,2.1c0,1.2,0.6,2.1,1.8,2.1c0.8,0,1.3-0.4,1.6-1&#10;&#9;l1.6,1.2c-0.7,1.1-1.8,1.8-3.3,1.8c-2.4,0-4.1-1.7-4.1-4.1c0-2.4,1.7-4.1,4.1-4.1C5.5,46.2,6.6,46.8,7.3,48" class="st0"/>
<path d="M10.4,54.2H8.2v-7.9h2.3v7.9H10.4z M10.6,43.8c0,0.8-0.6,1.3-1.3,1.3c-0.8,0-1.3-0.6-1.3-1.3&#10;&#9;c0-0.8,0.6-1.3,1.3-1.3C10.1,42.5,10.6,43,10.6,43.8" class="st0"/>
<path d="M19.3,54.2h-2.1l-0.1-0.9c-0.4,0.6-1.2,1-2.3,1C13,54.3,12,53,12,50.9v-4.6h2.3v4.5c0,0.9,0.4,1.4,1.2,1.4&#10;&#9;c0.7,0,1.2-0.5,1.5-0.9v-5h2.3V54.2z" class="st0"/>
<path d="M22.6,50.3c0,1.3,0.7,2.1,1.8,2.1c0.8,0,1.3-0.4,1.6-1v-2.2c-0.3-0.6-0.8-1-1.6-1&#10;&#9;C23.4,48.1,22.6,48.9,22.6,50.3 M28.3,54.2h-2.1l-0.1-0.9c-0.4,0.6-1.2,1-2.3,1c-2.1,0-3.5-1.7-3.5-4.1c0-2.4,1.4-4.1,3.5-4.1&#10;&#9;c1.1,0,1.8,0.4,2.2,0.9v-4.7h2.3V54.2z" class="st0"/>
<path d="M31.7,50.3c0,1.3,0.7,2.1,1.8,2.1c0.8,0,1.3-0.4,1.6-1v-2.2c-0.3-0.6-0.8-1-1.6-1C32.4,48.1,31.7,49,31.7,50.3&#10;&#9; M35.2,47.2l0.1-0.9h2.1v7.9h-2.1l-0.1-0.9c-0.4,0.6-1.2,1-2.3,1c-2.1,0-3.5-1.7-3.5-4.1c0-2.4,1.4-4.1,3.5-4.1&#10;&#9;C34.1,46.2,34.8,46.6,35.2,47.2" class="st0"/>
<path d="M40.8,50.3c0,1.3,0.7,2.1,1.8,2.1c0.8,0,1.3-0.4,1.6-1v-2.2c-0.3-0.6-0.8-1-1.6-1&#10;&#9;C41.5,48.1,40.8,48.9,40.8,50.3 M46.5,54.2h-2.1l-0.1-0.9c-0.4,0.6-1.2,1-2.3,1c-2.1,0-3.5-1.7-3.5-4.1c0-2.4,1.4-4.1,3.5-4.1&#10;&#9;c1.1,0,1.8,0.4,2.2,0.9v-4.7h2.3C46.5,42.3,46.5,54.2,46.5,54.2z" class="st0"/>
<g>
	<path d="M154.9,22.5l5.5,19.1c0.1,0.4-0.1,0.5-0.4,0.5h-4c-0.3,0-0.3-0.1-0.4-0.5l-1.8-6.2h-8.3l-1.8,6.2&#10;&#9;&#9;c-0.1,0.4-0.1,0.5-0.4,0.5h-3.9c-0.3,0-0.5-0.1-0.4-0.5l5.6-19.1c0.9-3.2,1.6-3.6,5.2-3.6C153.4,18.9,154,19.2,154.9,22.5&#10;&#9;&#9; M148.9,23.7l-2.3,7.9h6.2l-2.2-7.9c-0.2-0.7-0.2-0.9-0.9-0.9C149.1,22.8,149,23,148.9,23.7" class="st1"/>
	<path d="M172.3,25.6c0.3,0.1,0.5,0.2,0.5,0.6v2.4c0,0.3-0.2,0.4-0.5,0.4h-2.9c-1.6,0-2.2,0.2-2.2,1.5v11&#10;&#9;&#9;c0,0.3-0.2,0.5-0.5,0.5H163c-0.3,0-0.5-0.1-0.5-0.5V29.4c0-3.7,2.8-4.2,5.6-4.2C169.1,25.3,171.2,25.4,172.3,25.6" class="st1"/>
	<path d="M188.7,30.4v10.3c0,0.5-0.1,0.7-0.7,0.9c-2.2,0.5-4.9,0.6-7.1,0.6c-4.7,0-7.1-0.5-7.2-5.1&#10;&#9;&#9;c0.1-4,2.2-4.9,6.4-4.9h3.9v-1.1c0-1.4-0.9-2-2.9-2h-5.6c-0.3,0-0.4-0.1-0.4-0.4v-2.4c0-0.4,0.1-0.4,0.4-0.5&#10;&#9;&#9;c1.9-0.4,3.7-0.4,5.6-0.4C187.3,25.3,188.7,27.2,188.7,30.4 M180.5,35c-1.6,0-2.2,0.5-2.2,1.8c0,1.4,0.7,1.8,2.6,1.8&#10;&#9;&#9;c0.6,0,2.2-0.1,3.1-0.3V35H180.5z" class="st1"/>
	<path d="M207.1,25.4c0.3,0,0.4,0.1,0.4,0.4v15.3c0,0.4-0.1,0.4-0.4,0.5c-2.1,0.4-5.1,0.5-7.5,0.5c-6,0-7.5-1.1-7.5-7.1&#10;&#9;&#9;v-9.2c0-0.3,0.2-0.4,0.5-0.4h3.7c0.3,0,0.4,0.1,0.4,0.4v8c0,4.3,0.5,4.5,3.4,4.5h2.8V25.9c0-0.3,0.2-0.4,0.5-0.4h3.7L207.1,25.4&#10;&#9;&#9;L207.1,25.4z" class="st1"/>
	<path d="M223.7,25.7c0.3,0.1,0.5,0.2,0.5,0.6v2.3c0,0.3-0.2,0.5-0.5,0.5h-5.1c-2.9,0-3.3,0.9-3.3,4.7&#10;&#9;&#9;c0,3.7,0.4,4.7,3.3,4.7h5.1c0.3,0,0.5,0.1,0.5,0.4v2.4c0,0.4-0.2,0.5-0.5,0.6c-1.7,0.4-3.9,0.4-5.1,0.4c-6.6,0-7.9-1.7-7.9-8.4&#10;&#9;&#9;c0-6.8,1.3-8.4,7.9-8.4C219.8,25.3,222,25.3,223.7,25.7" class="st1"/>
	<path d="M241.1,30.4v10.3c0,0.5-0.1,0.7-0.7,0.9c-2.2,0.5-4.9,0.6-7.1,0.6c-4.7,0-7.1-0.5-7.2-5.1&#10;&#9;&#9;c0.1-4,2.2-4.9,6.4-4.9h3.9v-1.1c0-1.4-0.9-2-2.9-2h-5.6c-0.3,0-0.4-0.1-0.4-0.4v-2.4c0-0.4,0.1-0.4,0.4-0.5&#10;&#9;&#9;c1.9-0.4,3.7-0.4,5.6-0.4C239.7,25.3,241.1,27.2,241.1,30.4 M232.9,35c-1.6,0-2.2,0.5-2.2,1.8c0,1.4,0.7,1.8,2.6,1.8&#10;&#9;&#9;c0.6,0,2.2-0.1,3.1-0.3V35H232.9z" class="st1"/>
	<path d="M260.1,32.4v9.2c0,0.3-0.2,0.5-0.5,0.5h-3.7c-0.3,0-0.5-0.1-0.5-0.5v-8c0-4.2-0.5-4.4-3.3-4.4h-2.8v12.5&#10;&#9;&#9;c0,0.3-0.2,0.5-0.5,0.5h-3.7c-0.3,0-0.5-0.1-0.5-0.5V26.2c0-0.4,0.2-0.4,0.5-0.4c2.1-0.4,5.1-0.5,7.4-0.5&#10;&#9;&#9;C258.5,25.3,260.1,26.3,260.1,32.4" class="st1"/>
	<path d="M267.8,25.4c0.3,0,0.5,0.1,0.5,0.4v15.7c0,0.3-0.2,0.5-0.5,0.5h-3.7c-0.3,0-0.5-0.1-0.5-0.5V25.9&#10;&#9;&#9;c0-0.3,0.2-0.4,0.5-0.4h3.7V25.4z M271.2,18.5c0.2,0,0.3,0.1,0.3,0.3V19c0,0.1-0.1,0.3-0.2,0.4l-5.4,4.3c-0.2,0.1-0.2,0.1-0.4,0&#10;&#9;&#9;l-1.3-0.7c-0.2-0.1-0.2-0.3-0.1-0.4l2.3-3.9c0.1-0.1,0.2-0.2,0.4-0.2H271.2z" class="st1"/>
	<path d="M286,30.4v10.3c0,0.5-0.1,0.7-0.7,0.9c-2.2,0.5-4.9,0.6-7.1,0.6c-4.7,0-7.1-0.5-7.2-5.1c0.1-4,2.2-4.9,6.4-4.9&#10;&#9;&#9;h3.9v-1.1c0-1.4-0.9-2-2.9-2h-5.6c-0.3,0-0.4-0.1-0.4-0.4v-2.4c0-0.4,0.1-0.4,0.4-0.5c1.9-0.4,3.7-0.4,5.6-0.4&#10;&#9;&#9;C284.6,25.3,286,27.2,286,30.4 M277.8,35c-1.6,0-2.2,0.5-2.2,1.8c0,1.4,0.7,1.8,2.6,1.8c0.6,0,2.2-0.1,3.1-0.3V35H277.8z" class="st1"/>
	<path d="M167,19v3c0,0.1,0,0.2-0.2,0.3c-0.7,0.1-1.5,0.2-2.1,0.2c-1.4,0-2.1-0.1-2.2-1.5c0-1.2,0.7-1.5,1.9-1.5h1.2&#10;&#9;&#9;v-0.3c0-0.4-0.3-0.6-0.9-0.6H163c-0.1,0-0.1,0-0.1-0.1v-0.7c0-0.1,0-0.1,0.1-0.1c0.6-0.1,1.1-0.1,1.7-0.1C166.6,17.4,167,18,167,19&#10;&#9;&#9; M164.5,20.3c-0.5,0-0.7,0.2-0.7,0.5c0,0.4,0.2,0.5,0.8,0.5c0.2,0,0.7,0,0.9-0.1v-1h-1V20.3z" class="st2"/>
	<path d="M172.4,17.6c0.1,0,0.2,0.1,0.2,0.2v4.5c0,1.3-0.3,1.9-2.3,1.9c-0.6,0-1.2,0-1.7-0.1c-0.1,0-0.1,0-0.1-0.1v-0.7&#10;&#9;&#9;c0-0.1,0-0.1,0.1-0.1h1.6c0.8,0,1-0.2,1-0.8v-0.1c-0.4,0.1-0.7,0.1-1.1,0.1c-1.7,0-2.2-0.6-2.2-2.6c0-1.9,0.5-2.5,2.4-2.5&#10;&#9;&#9;C171,17.4,171.8,17.5,172.4,17.6 M170.3,18.6c-0.9,0-1,0.3-1,1.4s0.1,1.4,1.1,1.4c0.2,0,0.6,0,0.8-0.1v-2.7&#10;&#9;&#9;C171.2,18.6,170.3,18.6,170.3,18.6z" class="st2"/>
	<path d="M178.1,17.5c0.1,0,0.1,0,0.1,0.1v4.6c0,0.1,0,0.1-0.1,0.2c-0.6,0.1-1.5,0.2-2.2,0.2c-1.8,0-2.2-0.3-2.2-2.1&#10;&#9;&#9;v-2.7c0-0.1,0.1-0.1,0.1-0.1h1.1c0.1,0,0.1,0,0.1,0.1V20c0,1.3,0.1,1.3,1,1.3h0.8v-3.7c0-0.1,0-0.1,0.1-0.1&#10;&#9;&#9;C176.9,17.5,178.1,17.5,178.1,17.5z" class="st2"/>
	<path d="M183.5,19v3c0,0.1,0,0.2-0.2,0.3c-0.7,0.1-1.5,0.2-2.1,0.2c-1.4,0-2.1-0.1-2.2-1.5c0-1.2,0.7-1.5,1.9-1.5h1.2&#10;&#9;&#9;v-0.3c0-0.4-0.3-0.6-0.9-0.6h-1.7c-0.1,0-0.1,0-0.1-0.1v-0.7c0-0.1,0-0.1,0.1-0.1c0.6-0.1,1.1-0.1,1.7-0.1&#10;&#9;&#9;C183.1,17.4,183.5,18,183.5,19 M181.1,20.3c-0.5,0-0.7,0.2-0.7,0.5c0,0.4,0.2,0.5,0.8,0.5c0.2,0,0.7,0,0.9-0.1v-1h-1V20.3z" class="st2"/>
	<path d="M188.1,17.5c0.1,0,0.1,0.1,0.1,0.1v0.7c0,0.1,0,0.1-0.2,0.1h-1.7c-0.4,0-0.5,0.1-0.5,0.3v0.1&#10;&#9;&#9;c0,0.2,0.1,0.3,0.4,0.4l1.2,0.4c0.8,0.3,1,0.7,1,1.3V21c0,1-0.8,1.3-2,1.3c-0.8,0-1.5,0-1.9-0.1c-0.1,0-0.2,0-0.2-0.1v-0.7&#10;&#9;&#9;c0-0.1,0-0.1,0.2-0.1h1.9c0.5,0,0.6-0.1,0.6-0.3l0,0c0-0.2-0.1-0.3-0.5-0.4l-1.1-0.4c-0.7-0.2-0.9-0.8-0.9-1.3v-0.2&#10;&#9;&#9;c0-0.9,0.8-1.3,2.1-1.3C187,17.4,187.5,17.5,188.1,17.5" class="st2"/>
	<path d="M121.1,42c8.9,0,16.2-5.2,16.2-11.6c0-5.8-5.9-10.5-13.6-11.4c-2.1-0.2-2.3,0.8-2.3,1.2c0,3,7.2,8.8,7.2,14.3&#10;&#9;&#9;c0,5-4.9,7.1-7.6,7.1s-7.5-2-7.5-7.1c0-5.5,7.2-11.4,7.2-14.3c0-0.5-0.1-1.5-2.3-1.2c-7.7,0.9-13.6,5.7-13.6,11.4&#10;&#9;&#9;C104.9,36.8,112.1,42,121.1,42L121.1,42z" class="st2"/>
	<path d="M121.2,45.5c-9.6,0-29.6,1.6-29.6,5.9c0,2.4,3.4,3.1,5.8,3.1c10.7,0,23.5-7.5,33-7.5c8.6,0,16.1,4.8,18.8,5.4&#10;&#9;&#9;h0.8c0.4-0.1,0.6-0.6,0.5-1.1c-0.1-0.3-0.5-2.7-9.9-4.3C131,45.5,121.2,45.5,121.2,45.5" class="st3"/>
</g>
</svg>