<svg xmlns="http://www.w3.org/2000/svg" xmlnsxlink="http://www.w3.org/1999/xlink" width="110" height="41.78" viewBox="0 0 110 41.78" class="header-logo-mobile">
                                            <defs>
                                                <clipPath id="clip-path-logo-mobile">
                                                    <rect id="Rectángulo_73" data-name="Rectángulo 73" width="110" height="41.78" fill="none"/>
                                                </clipPath>
                                            </defs>
                                            <g id="Grupo_86" data-name="Grupo 86" transform="translate(227 79.692)">
                                                <path id="Trazado_386" data-name="Trazado 386" d="M6.785,51.828l-.1,3.245H4.812Zm-.6-2.73L0,58.154H2.906l.728-1.2H6.589l-.036,1.2H9.51l-.3-9.056Z" transform="translate(-196.392 -96.362)" fill="#fff"/>
                                                <g id="Grupo_85" data-name="Grupo 85" transform="translate(-227 -79.692)">
                                                    <g id="Grupo_84" data-name="Grupo 84" clip-path="url(#clip-path-logo-mobile)">
                                                        <path id="Trazado_388" data-name="Trazado 388" d="M34.661,54.341,36.328,49.1h2.983l-1.77,5.566a2.221,2.221,0,0,0-.142,1.2q.169.5,1,.5,1.39,0,1.932-1.705L42.1,49.1h2.982l-1.671,5.256a6.3,6.3,0,0,1-2.086,3.261,5.957,5.957,0,0,1-3.65,1.027q-2.2,0-2.944-.956-.812-1.02-.074-3.345" transform="translate(-12.269 -16.862)" fill="#fff"/>
                                                        <g id="Grupo_155" data-name="Grupo 155" transform="translate(0 31.99)">
                                                            <path id="Trazado_387" data-name="Trazado 387" d="M27.309,53.154l-1.634,5.14H23.754l.178-.917a4.58,4.58,0,0,1-3.1,1.137,3.064,3.064,0,0,1-2.7-1.175,3.951,3.951,0,0,1-.194-3.6,7.4,7.4,0,0,1,2.442-3.629,6.106,6.106,0,0,1,3.915-1.382,3.51,3.51,0,0,1,2.569.865,2.84,2.84,0,0,1,.644,2.584h-2.83Q24.722,51,23.522,51a2.026,2.026,0,0,0-1.528.729,5.288,5.288,0,0,0-1.07,2q-.8,2.519,1.108,2.519a2.229,2.229,0,0,0,1.045-.3,2,2,0,0,0,.825-.768H22.587l.64-2.015Z" transform="translate(-6.298 -48.724)" fill="#fff"/>
                                                            <path id="Trazado_389" data-name="Trazado 389" d="M51,58.4H48.077l6.217-9.3h3.033l.3,9.3H54.661L54.7,57.17h-2.97Zm3.8-3.164.1-3.332-1.982,3.332Z" transform="translate(-48.077 -48.852)" fill="#fff"/>
                                                        </g>
                                                        <path id="Trazado_390" data-name="Trazado 390" d="M74.394,51.669h-2.83a.566.566,0,0,0-.229-.633,1.327,1.327,0,0,0-.718-.168q-.948,0-1.116.53t1.073.878a10.4,10.4,0,0,1,2.265.826,1.758,1.758,0,0,1,.65,2.209,4.2,4.2,0,0,1-1.956,2.416,6.581,6.581,0,0,1-3.321.788,3.334,3.334,0,0,1-2.6-.93A2.162,2.162,0,0,1,65.17,55.4h2.856a.749.749,0,0,0,.258.736,1.207,1.207,0,0,0,.773.232q1.238,0,1.456-.684.168-.53-1.077-.865a9.146,9.146,0,0,1-2.265-.827,1.836,1.836,0,0,1-.621-2.3,3.838,3.838,0,0,1,1.831-2.222,5.966,5.966,0,0,1,3.056-.749,3.216,3.216,0,0,1,2.543.865,2.387,2.387,0,0,1,.413,2.079" transform="translate(-23.263 -16.734)" fill="#fff"/>
                                                        <path id="Trazado_391" data-name="Trazado 391" d="M82.563,58.4H78.646L81.6,49.1h3.993a3.82,3.82,0,0,1,3.13,1.085q.915,1.137.2,3.371Q87.391,58.4,82.563,58.4m1.331-7.13-1.576,4.96h.631q2.148,0,2.945-2.506.452-1.419.123-1.937t-1.555-.517Z" transform="translate(-28.123 -16.862)" fill="#fff"/>
                                                        <path id="Trazado_392" data-name="Trazado 392" d="M101.761,58.4H94.166l2.956-9.3h7.418l-.689,2.169H99.415l-.4,1.288h3.754l-.605,1.893H98.413l-.575,1.779h4.613Z" transform="translate(-33.673 -16.862)" fill="#fff"/>
                                                        <path id="Trazado_393" data-name="Trazado 393" d="M118.907,52.521h-2.83Q116.421,51,114.943,51q-1.681,0-2.543,2.712a3.585,3.585,0,0,0-.23,1.756q.184.775,1.22.775a2.219,2.219,0,0,0,2.03-1.576h2.868a6.4,6.4,0,0,1-2.268,2.823,5.71,5.71,0,0,1-3.3,1.027A3.459,3.459,0,0,1,109.6,57.2a4.107,4.107,0,0,1-.148-3.591,7.13,7.13,0,0,1,2.448-3.564,5.824,5.824,0,0,1,3.641-1.317,3.686,3.686,0,0,1,2.915.988,3.087,3.087,0,0,1,.453,2.809" transform="translate(-39.021 -16.734)" fill="#fff"/>
                                                        <path id="Trazado_394" data-name="Trazado 394" d="M126.655,58.4h-2.982l2.956-9.3h2.983Z" transform="translate(-44.224 -16.862)" fill="#fff"/>
                                                        <path id="Trazado_395" data-name="Trazado 395" d="M133.689,58.4H131.01l2.956-9.3h3.6l-.238,5.8,3.448-5.8h3.6l-2.956,9.3h-2.679l.9-2.842.5-1.446.686-1.679h-.026L137.253,58.4H135.18l.242-5.967H135.4l-.308,1.369-.4,1.446Z" transform="translate(-46.847 -16.862)" fill="#fff"/>
                                                        <path id="Trazado_396" data-name="Trazado 396" d="M151.535,58.4h-2.919l6.217-9.3h3.033l.3,9.3H155.2l.036-1.227h-2.97Zm3.8-3.164.1-3.332-1.982,3.332Z" transform="translate(-53.143 -16.862)" fill="#fff"/>
                                                        <path id="Trazado_397" data-name="Trazado 397" d="M168.487,52.5a1.918,1.918,0,0,1-2.76,0,2.035,2.035,0,0,1,.005-2.822,1.924,1.924,0,0,1,2.755,0,1.933,1.933,0,0,1,.572,1.407,1.955,1.955,0,0,1-.572,1.415m-2.566-2.626a1.675,1.675,0,0,0-.489,1.214,1.7,1.7,0,0,0,.486,1.222,1.647,1.647,0,0,0,2.375,0,1.761,1.761,0,0,0,0-2.436,1.646,1.646,0,0,0-2.372,0m1.148.112a1.6,1.6,0,0,1,.584.079.543.543,0,0,1,.332.554.483.483,0,0,1-.209.433.8.8,0,0,1-.309.106.519.519,0,0,1,.367.214.615.615,0,0,1,.116.339v.16c0,.051,0,.1.005.162a.351.351,0,0,0,.019.114l.014.027h-.354c0-.007,0-.014-.005-.022s0-.015-.005-.024l-.008-.07v-.173a.54.54,0,0,0-.2-.5.9.9,0,0,0-.419-.07h-.3v.861h-.377V49.984Zm.407.345a.962.962,0,0,0-.457-.081H166.7v.792h.342a1,1,0,0,0,.359-.049.4.4,0,0,0,.079-.662" transform="translate(-59.059 -16.861)" fill="#fff"/>
                                                        <path id="Trazado_398" data-name="Trazado 398" d="M74.287,38.58a41.4,41.4,0,0,0,4.613.255,40.832,40.832,0,0,0,6.033-.441l.138-3.413H76.337Z" transform="translate(-26.564 -12.014)" fill="#fff"/>
                                                        <path id="Trazado_399" data-name="Trazado 399" d="M109.994,23.66c2.956-2.239,4.707-5.019,4.707-8.032,0-3.549-2.428-6.775-6.395-9.174Z" transform="translate(-38.729 -2.217)" fill="#fff"/>
                                                        <path id="Trazado_400" data-name="Trazado 400" d="M88.24,20.479H82.415l6.4-11.271Z" transform="translate(-29.47 -3.162)" fill="#fff"/>
                                                        <path id="Trazado_401" data-name="Trazado 401" d="M61.5,2.144A37.579,37.579,0,0,1,74.328,0q.292,0,.583,0a7.375,7.375,0,0,1-2.437,3.369,6.668,6.668,0,0,1-4.6,1.274c-1.5-.083-3.068-1.057-4.314-1.6s-2.061-.9-2.061-.9" transform="translate(-21.992 0)" fill="#fff"/>
                                                        <path id="Trazado_402" data-name="Trazado 402" d="M52.652,31.234C48.664,29.2,45.9,26.4,45.077,23.253a3.421,3.421,0,0,1,1.684-.395,4.536,4.536,0,0,1,2.949,1.3A6.654,6.654,0,0,0,53.5,25.842a7.714,7.714,0,0,0,3.148-.165Z" transform="translate(-16.119 -7.85)" fill="#fff"/>
                                                        <path id="Trazado_403" data-name="Trazado 403" d="M66.277,8.749a6.328,6.328,0,0,1-4.058.171c-2.166-.452-2.678-1.536-4.314-2.15a7.434,7.434,0,0,0-5.879.091,8.444,8.444,0,0,0-2.909,2.367,9.33,9.33,0,0,1,3.377-.054c1.53.253,2.794,1.364,3.9,2.06a7.1,7.1,0,0,0,3.262.976,6.7,6.7,0,0,0,3.908-.931,6.208,6.208,0,0,0,2.714-2.53" transform="translate(-17.563 -2.132)" fill="#fff"/>
                                                        <path id="Trazado_404" data-name="Trazado 404" d="M44.773,17.564a6.1,6.1,0,0,1,4.981-3.111c3.349-.02,3.711,1.911,6.431,2.623a8.059,8.059,0,0,0,4.647-.049,7.675,7.675,0,0,1-4.017,3.15,7.257,7.257,0,0,1-6.354-.819c-1.546-1.093-2.033-2.156-5.687-1.794" transform="translate(-16.01 -4.964)" fill="#fff"/>
                                                    </g>
                                                </g>
                                            </g>
                                        </svg>