<svg width="213" height="32" viewBox="0 0 213 32" fill="none" xmlns="http://www.w3.org/2000/svg">
<g clip-path="url(#clip0_4011_5860)">
<mask id="mask0_4011_5860" style="mask-type:luminance" maskUnits="userSpaceOnUse" x="-20" y="-13" width="250" height="58">
<path d="M229.692 -12.3826H-19.4023V44.0692H229.692V-12.3826Z" fill="white"/>
</mask>
<g mask="url(#mask0_4011_5860)">
<mask id="mask1_4011_5860" style="mask-type:luminance" maskUnits="userSpaceOnUse" x="-20" y="-13" width="250" height="58">
<path d="M229.692 -12.3826H-19.4023V44.0692H229.692V-12.3826Z" fill="white"/>
</mask>
<g mask="url(#mask1_4011_5860)">
<path d="M0.312634 15.5435V2.16022L0.0249023 0.0527344H17.9853V2.58212H4.11231V6.42827H14.8767V9.03659H4.11231V15.5435H0.312634Z" fill="#1E90FF"/>
<path d="M16.259 15.5435L24.6923 0.0527344H30.3625L38.7673 15.5435H34.335L32.6365 12.1975H22.3319L20.4607 15.5435H16.2583H16.259ZM23.3686 9.6157H31.572L27.6288 2.42358H27.341L23.3693 9.6157H23.3686Z" fill="#1E90FF"/>
<mask id="mask2_4011_5860" style="mask-type:luminance" maskUnits="userSpaceOnUse" x="-20" y="-13" width="250" height="58">
<path d="M229.692 -12.3826H-19.4023V44.0692H229.692V-12.3826Z" fill="white"/>
</mask>
<g mask="url(#mask2_4011_5860)">
<path d="M59.4628 15.8068C58.6949 15.8068 57.9419 15.6967 57.2031 15.4778C56.4644 15.2582 55.6244 14.7183 54.6843 13.8579L52.6117 11.9613C51.7669 11.1713 50.8418 10.5915 49.8344 10.2227C48.827 9.85385 47.5652 9.66944 46.0497 9.66944H45.1572V15.5441H41.3576V2.16155L41.0698 0.0275269H53.8211C55.0489 0.0275269 56.0128 0.176782 56.7141 0.475294C57.414 0.774468 57.9323 1.16452 58.2684 1.64745C58.6037 2.13103 58.82 2.64447 58.9159 3.18843C59.0118 3.73304 59.0601 4.25113 59.0601 4.74268V5.24351C59.0601 5.63025 59.0023 6.06011 58.8874 6.53441C58.7724 7.00871 58.5513 7.47438 58.2255 7.93077C57.899 8.38783 57.4337 8.7739 56.8297 9.08966C56.225 9.40608 55.4339 9.5905 54.4551 9.6429C54.704 9.76629 55.021 9.95468 55.4047 10.2094C55.7883 10.4641 56.1862 10.7408 56.5991 11.0393C57.0113 11.3378 57.3909 11.6104 57.7364 11.8559C58.082 12.102 58.3507 12.2771 58.5425 12.3826C59.2329 12.7514 59.8471 13.0061 60.3845 13.1468C60.9212 13.2874 61.3633 13.3663 61.7082 13.3836C62.0538 13.4015 62.2551 13.4101 62.3129 13.4101L61.7375 15.5441C61.5647 15.5965 61.277 15.6536 60.8743 15.7153C60.4716 15.7763 60.0009 15.8075 59.4642 15.8075M49.4745 7.2714C50.2037 7.2714 50.8561 7.25813 51.4315 7.2316C52.007 7.20506 52.5253 7.17455 52.9858 7.13939C53.83 7.05183 54.4204 6.83623 54.7557 6.49394C55.0911 6.15165 55.2598 5.70786 55.2598 5.16324V4.5576C55.2598 3.99574 55.0965 3.52143 54.7707 3.1347C54.4442 2.74862 53.8592 2.55492 53.0151 2.55492H45.1572V7.13872C46.0014 7.19113 46.7789 7.22695 47.489 7.2442C48.1985 7.26211 48.861 7.27073 49.4752 7.27073" fill="#1E90FF"/>
<path d="M64.9023 15.5435V0.0527344H82.8056V2.58145H68.702V6.21666H79.4671V8.82498H68.702V13.0134H82.9212L84.0728 15.2529C84.0728 15.3232 83.8137 15.3889 83.296 15.4506C82.7777 15.5123 81.8859 15.5428 80.6194 15.5428H64.9037L64.9023 15.5435Z" fill="#1E90FF"/>
<path d="M86.9497 15.5434L87.2374 13.436V0.0533752H91.0371V13.0147H102.953L104.105 15.2542C104.105 15.3245 103.846 15.3902 103.327 15.4519C102.809 15.5136 101.917 15.5441 100.651 15.5441H86.9497V15.5434Z" fill="#1E90FF"/>
<path d="M106.695 15.5434L106.983 13.436V0.0533752H110.782V13.0147H122.698L123.85 15.2542C123.85 15.3245 123.591 15.3902 123.072 15.4519C122.554 15.5136 121.662 15.5441 120.396 15.5441H106.695V15.5434Z" fill="#1E90FF"/>
<path d="M131.419 15.5435C130.076 15.5435 129.02 15.3683 128.253 15.0168C127.485 14.6658 126.944 14.1385 126.627 13.436C126.31 12.7335 126.152 11.8645 126.152 10.8277V4.74201C126.152 3.72376 126.305 2.86736 126.612 2.17349C126.919 1.47962 127.457 0.95291 128.224 0.592707C128.992 0.233167 130.057 0.0527344 131.419 0.0527344H139.824C141.167 0.0527344 142.218 0.233167 142.976 0.592707C143.733 0.95291 144.271 1.47962 144.588 2.17349C144.905 2.86736 145.062 3.72376 145.062 4.74201V10.8277C145.062 12.3733 144.688 13.5454 143.94 14.3448C143.192 15.1441 141.82 15.5435 139.824 15.5435H131.419ZM132.254 13.0141H139.018C139.728 13.0141 140.279 12.8476 140.673 12.5139C141.066 12.1802 141.263 11.7239 141.263 11.1441V4.42625C141.263 3.91679 141.061 3.48229 140.658 3.12209C140.255 2.76255 139.709 2.58212 139.017 2.58212H132.253C131.562 2.58212 131.006 2.74928 130.584 3.08295C130.162 3.41662 129.951 3.86439 129.951 4.42625V11.1441C129.951 11.7411 130.157 12.2021 130.57 12.5272C130.982 12.8522 131.543 13.0148 132.254 13.0148" fill="#1E90FF"/>
<path d="M149.668 15.5435V2.16022L149.38 0.0527344H153.525L163.311 9.43129L164.434 10.8542H164.75V0.0527344H168.55V15.5435H164.894L154.877 6.00703L153.755 4.76855H153.467V15.5435H149.668Z" fill="#1E90FF"/>
<path d="M173.154 15.5435V0.0527344H191.058V2.58145H176.954V6.21666H187.719V8.82498H176.954V13.0134H191.173L192.324 15.2529C192.324 15.3232 192.065 15.3889 191.547 15.4506C191.029 15.5123 190.137 15.5428 188.871 15.5428H173.155L173.154 15.5435Z" fill="#1E90FF"/>
<path d="M198.426 15.5435C197.121 15.5435 196.162 15.491 195.548 15.3856C194.934 15.2801 194.627 15.1574 194.627 15.0167L195.778 12.7248C196.219 12.7952 197.318 12.8608 199.074 12.9225C200.829 12.9842 203.242 13.0147 206.312 13.0147H206.859C207.684 13.0147 208.27 12.8787 208.615 12.6061C208.96 12.3341 209.133 11.8731 209.133 11.223V10.6963C209.133 10.082 208.994 9.64288 208.716 9.37887C208.437 9.11551 207.818 8.9835 206.859 8.9835H200.182C198.243 8.9835 196.833 8.65448 195.951 7.99576C195.068 7.33705 194.627 6.26174 194.627 4.76853V4.34729C194.627 3.57448 194.785 2.86336 195.102 2.21327C195.418 1.56384 195.96 1.04112 196.728 0.645756C197.495 0.250394 198.551 0.0533752 199.895 0.0533752H207.724C209.028 0.0533752 210.084 0.115067 210.89 0.237789C211.696 0.36051 212.099 0.49252 212.099 0.633152L211.523 2.84611C211.024 2.79371 209.892 2.73666 208.127 2.67497C206.361 2.61394 203.992 2.58276 201.018 2.58276L200.701 2.55623C199.818 2.55623 199.222 2.71875 198.916 3.04379C198.608 3.36884 198.445 3.77747 198.427 4.26902V4.71678C198.427 5.29656 198.603 5.73106 198.959 6.02095C199.314 6.31083 199.904 6.45545 200.729 6.45545H207.119C208.347 6.45545 209.393 6.56954 210.256 6.79774C211.119 7.02593 211.782 7.44318 212.242 8.04883C212.703 8.65448 212.934 9.54603 212.934 10.7228V11.1441C212.934 12.4615 212.564 13.5242 211.825 14.3315C211.087 15.1395 209.806 15.5435 207.983 15.5435H198.427H198.426Z" fill="#1E90FF"/>
<path d="M6.99023 31.9629L15.8269 19.3312H20.2653L24.6085 31.9629H21.1387L20.2925 29.2345H12.2272L10.2797 31.9629H6.99023ZM13.4108 27.1297H19.8313L17.7825 21.2649H17.5574L13.4108 27.1297Z" fill="#636365"/>
<path d="M28.0331 31.9629C27.2971 31.9629 26.7387 31.8701 26.3591 31.6837C25.9789 31.4979 25.7279 31.2611 25.6061 30.9745C25.4844 30.688 25.432 30.3875 25.4504 30.0724C25.4687 29.7573 25.5007 29.4707 25.5463 29.2133L26.7625 22.3389H29.5112L28.2869 29.2558C28.2161 29.5709 28.2855 29.7931 28.4957 29.9218C28.7059 30.0505 28.946 30.1155 29.216 30.1155H33.6769C34.0068 30.1155 34.2074 30.087 34.2782 30.0299C34.3482 29.9729 34.4115 29.7865 34.4673 29.4714L35.7298 22.3396H38.4785L36.7752 31.9636H34.9278L34.1476 31.5337C33.5265 31.6485 32.7987 31.7487 31.9654 31.8349C31.1315 31.9205 30.2037 31.9636 29.1827 31.9636H28.0338L28.0331 31.9629Z" fill="#636365"/>
<path d="M42.497 31.9629C41.3556 31.9629 40.6149 31.7341 40.2755 31.2757C39.936 30.8173 39.8476 30.1301 40.0095 29.2133L40.8992 24.1864H39.0518L39.3789 22.3389H40.3251C40.6101 22.3389 40.8244 22.2958 40.9672 22.2102C41.1101 22.1247 41.2339 21.9522 41.34 21.6948L42.1977 19.3963H44.4955L43.9745 22.3396H48.6605L48.3333 24.187H43.6473L42.7542 29.2352C42.6909 29.5934 42.7392 29.8296 42.899 29.9443C43.0589 30.0591 43.3194 30.1161 43.6799 30.1161H46.8565L46.7933 31.7487C46.4702 31.7918 45.9811 31.8382 45.3267 31.888C44.6717 31.9384 43.9615 31.9629 43.1956 31.9629H42.497Z" fill="#636365"/>
<path d="M50.6071 31.9629C49.6011 31.9629 48.8875 31.7699 48.4685 31.3831C48.0488 30.9964 47.9162 30.3662 48.0706 29.4926L48.8501 25.0885C48.8882 24.8736 48.9528 24.6129 49.0453 24.3044C49.1372 23.9966 49.2963 23.6922 49.5222 23.3917C49.748 23.0912 50.0854 22.8404 50.5337 22.6401C50.9819 22.4397 51.5744 22.3396 52.3104 22.3396H58.5282C59.2792 22.3396 59.8397 22.4397 60.2097 22.6401C60.5797 22.8411 60.8246 23.0912 60.9436 23.3917C61.0627 23.6922 61.1144 23.9966 61.0974 24.3044C61.0804 24.6129 61.0532 24.8736 61.0151 25.0885L60.2852 29.2133C60.2396 29.4713 60.1696 29.7579 60.0771 30.073C59.9839 30.3881 59.8213 30.6886 59.5907 30.9752C59.3594 31.2617 59.0248 31.4979 58.5867 31.6843C58.1487 31.8707 57.5609 31.9636 56.825 31.9636H50.6071V31.9629ZM51.79 30.1155H56.2957C57.0317 30.1155 57.4501 29.8289 57.5521 29.2564L58.2976 25.0461C58.399 24.4736 58.0813 24.187 57.346 24.187H52.8403C52.1192 24.187 51.7084 24.4736 51.607 25.0461L50.8622 29.2564C50.7608 29.8295 51.0703 30.1155 51.7914 30.1155" fill="#636365"/>
<path d="M61.3765 31.9629L63.0797 22.3389H64.9272L65.4448 22.597C65.8931 22.5253 66.4373 22.465 67.0767 22.4146C67.7167 22.3648 68.4718 22.3396 69.3431 22.3396H70.4696C70.9049 22.3396 71.3164 22.3933 71.7028 22.5008C72.0892 22.6083 72.3626 22.7622 72.5225 22.9625C72.9455 22.7767 73.5128 22.6262 74.2244 22.5114C74.9352 22.3966 75.8467 22.3396 76.9581 22.3396H78.0846C78.8355 22.3396 79.396 22.4398 79.7661 22.6401C80.1361 22.8404 80.381 23.0912 80.5007 23.3917C80.6197 23.6922 80.6714 23.9967 80.6544 24.3045C80.6374 24.6129 80.6102 24.8736 80.5721 25.0885L79.3552 31.9629H76.6065L77.8308 25.0454C77.9322 24.473 77.6227 24.1864 76.9017 24.1864H73.7475C73.5074 24.1864 73.3367 24.2149 73.2367 24.272C73.136 24.3297 73.0687 24.4584 73.0333 24.6587L71.7409 31.9623H68.9921L70.2165 25.0448C70.3179 24.4723 70.0084 24.1857 69.2874 24.1857H66.1781C65.8924 24.1857 65.704 24.2109 65.6128 24.2607C65.521 24.3111 65.4564 24.4431 65.4183 24.658L64.1259 31.9616H61.3771L61.3765 31.9629Z" fill="#636365"/>
<path d="M83.7927 31.9629C82.7859 31.9629 82.0731 31.7699 81.6541 31.3831C81.2344 30.9964 81.1017 30.3662 81.2561 29.4926L82.0357 25.0885C82.0738 24.8736 82.1384 24.6129 82.2309 24.3044C82.3227 23.9966 82.4819 23.6922 82.7077 23.3917C82.9335 23.0912 83.2709 22.8404 83.7192 22.6401C84.1675 22.4397 84.7599 22.3396 85.4959 22.3396H91.7138C92.4647 22.3396 93.0252 22.4397 93.3952 22.6401C93.7653 22.8411 94.0102 23.0912 94.1292 23.3917C94.2482 23.6922 94.2999 23.9966 94.2829 24.3044C94.2659 24.6129 94.2387 24.8736 94.2006 25.0885L93.4707 29.2133C93.4252 29.4713 93.3551 29.7579 93.2626 30.073C93.1694 30.3881 93.0068 30.6886 92.7762 30.9752C92.545 31.2617 92.2103 31.4979 91.7723 31.6843C91.3342 31.8707 90.7465 31.9636 90.0105 31.9636H83.7927V31.9629ZM84.9762 30.1155H89.482C90.218 30.1155 90.6363 29.8289 90.7383 29.2564L91.4838 25.0461C91.5852 24.4736 91.2675 24.187 90.5322 24.187H86.0265C85.3054 24.187 84.8946 24.4736 84.7933 25.0461L84.0484 29.2564C83.9471 29.8295 84.2566 30.1155 84.9776 30.1155" fill="#636365"/>
<path d="M98.4819 31.9629C97.3405 31.9629 96.5998 31.7341 96.2603 31.2757C95.9209 30.8173 95.8325 30.1301 95.9944 29.2133L96.8841 24.1864H95.0366L95.3638 22.3389H96.31C96.595 22.3389 96.8093 22.2958 96.9521 22.2102C97.095 22.1247 97.2187 21.9522 97.3249 21.6948L98.1819 19.3963H100.48L99.9586 22.3396H104.645L104.317 24.187H99.6315L98.7377 29.2352C98.6744 29.5934 98.7227 29.8296 98.8825 29.9443C99.0424 30.0591 99.3029 30.1161 99.6634 30.1161H102.84L102.776 31.7487C102.453 31.7918 101.964 31.8382 101.31 31.888C100.655 31.9384 99.9444 31.9629 99.1784 31.9629H98.4799H98.4819Z" fill="#636365"/>
<path d="M103.844 31.9629L105.547 22.3389H107.395L108.175 22.7688C108.601 22.5684 109.049 22.4112 109.521 22.2965C109.991 22.1824 110.572 22.1247 111.263 22.1247C112.36 22.1247 113.229 22.2394 113.872 22.4683C114.515 22.6978 114.939 22.8696 115.144 22.9837L114.024 24.8524C113.859 24.7668 113.582 24.656 113.193 24.5194C112.804 24.3834 112.341 24.258 111.807 24.1433C111.271 24.0285 110.673 23.9715 110.012 23.9715H109.765C109.044 23.9715 108.55 24.1074 108.285 24.3794C108.019 24.6514 107.822 25.1025 107.696 25.7327L106.593 31.9623H103.844V31.9629Z" fill="#636365"/>
<path d="M114.456 31.9629L116.159 22.3389H118.908L117.204 31.9629H114.456ZM117.772 20.9857C117.217 20.9857 116.83 20.8782 116.613 20.6633C116.395 20.4483 116.331 20.0908 116.42 19.5893C116.511 19.0739 116.699 18.7123 116.984 18.5047C117.268 18.2971 117.696 18.1929 118.267 18.1929C118.838 18.1929 119.232 18.2971 119.451 18.5047C119.669 18.7123 119.733 19.0739 119.642 19.5893C119.556 20.0762 119.365 20.4311 119.071 20.6527C118.776 20.8749 118.344 20.9857 117.773 20.9857" fill="#636365"/>
<path d="M118.803 31.9629L119.031 30.674L127.452 24.2082H120.626L120.957 22.3396H131.996L131.768 23.6285L123.14 30.1161H130.823L131.214 31.7274C131.204 31.7851 130.969 31.8389 130.51 31.8886C130.05 31.939 129.287 31.9636 128.221 31.9636H118.804L118.803 31.9629Z" fill="#636365"/>
<path d="M11.2752 22.112H0.32373V18.9279H13.4519L11.2752 22.112Z" fill="#1E90FF"/>
<path d="M6.51368 26.9546H0.32373V23.7704H8.69037L6.51368 26.9546Z" fill="#00BFFF"/>
<path d="M3.52074 31.7971H0.32373V28.6129H5.6294L3.52074 31.7971Z" fill="#636365"/>
</g>
</g>
</g>
</g>
<defs>
<clipPath id="clip0_4011_5860">
<rect width="213" height="32" fill="white"/>
</clipPath>
</defs>
</svg>
